<?xml version="1.0" encoding="utf-8"?>
<!-- Generator: Adobe Illustrator 24.1.2, SVG Export Plug-In . SVG Version: 6.00 Build 0)  -->
<svg version="1.1" id="Layer_1" xmlns="http://www.w3.org/2000/svg" xmlns:xlink="http://www.w3.org/1999/xlink" x="0px" y="0px"
	 viewBox="0 0 100 100" style="enable-background:new 0 0 100 100;" xml:space="preserve">
<g>
	<path d="M100,49.94c0.16,27.22-22.16,49.82-49.4,49.99C22.88,100.1,0.21,77.95,0,50.61C-0.2,22.99,21.66,0.42,49.03,0.08
		C77.45-0.28,99.83,21.82,100,49.94z M51.39,67.76c0-0.01,0-0.01,0-0.02c2.8,0,5.6,0.05,8.39-0.04c0.58-0.02,1.39-0.44,1.68-0.93
		c2.9-4.71,5.74-9.46,8.52-14.25c0.28-0.49,0.3-1.41,0.02-1.91c-2.71-4.89-5.47-9.75-8.31-14.56c-0.31-0.53-1.16-1.03-1.77-1.04
		c-5.65-0.08-11.3-0.07-16.94,0c-0.58,0.01-1.39,0.43-1.69,0.91c-2.88,4.66-5.7,9.36-8.47,14.09c-0.27,0.46-0.35,1.33-0.1,1.77
		c2.85,5.06,5.75,10.1,8.72,15.09c0.28,0.47,1.13,0.83,1.72,0.85C45.9,67.81,48.64,67.76,51.39,67.76z M32.14,19.39
		c-3.75,0.48-7.5,0.91-11.24,1.46c-0.73,0.11-1.55,0.57-2.06,1.11c-3.82,4.14-6.42,8.99-7.94,14.4c-0.2,0.7-0.29,1.57-0.06,2.24
		c1.31,3.83,2.76,7.61,4.12,11.43c0.38,1.06,1.01,1.35,2.12,1.26c4.26-0.37,8.53-0.6,12.79-1.01c0.61-0.06,1.36-0.64,1.69-1.19
		c2.84-4.62,5.64-9.27,8.36-13.96c0.35-0.61,0.48-1.58,0.26-2.24c-1.14-3.49-2.39-6.94-3.67-10.38
		C35.41,19.51,35.37,19.52,32.14,19.39z M85.77,52.53c0.21-0.19,0.9-0.52,1.1-1.04c1.42-3.66,2.79-7.35,4.05-11.07
		c0.23-0.69,0.13-1.69-0.21-2.34c-2.66-5.1-5.38-10.16-8.18-15.19c-0.35-0.62-1.18-1.26-1.86-1.36c-3.84-0.56-7.7-0.96-11.54-1.42
		c-1.26-0.15-1.83,0.47-2.24,1.61c-1.31,3.66-2.68,7.31-4.1,10.93c-0.4,1.02-0.28,1.82,0.27,2.76c2.79,4.78,5.48,9.62,8.3,14.39
		c0.35,0.59,1.16,1.19,1.83,1.28C77.21,51.63,81.24,52.03,85.77,52.53z M51.35,69.22C51.35,69.22,51.35,69.22,51.35,69.22
		c-2.74-0.01-5.49-0.07-8.22,0.04c-0.71,0.03-1.62,0.38-2.08,0.91c-2.7,3.1-5.27,6.31-7.94,9.44c-0.64,0.75-0.78,1.36-0.19,2.16
		c2.32,3.18,4.59,6.41,6.98,9.54c0.43,0.56,1.37,1.03,2.08,1.04c5.69,0.09,11.39,0.1,17.08,0.01c0.74-0.01,1.69-0.56,2.18-1.16
		c2.58-3.13,5.01-6.38,7.56-9.54c0.67-0.84,0.64-1.44-0.01-2.26c-2.36-3.02-4.63-6.13-7.02-9.12c-0.43-0.54-1.32-0.97-2.02-1
		C56.94,69.16,54.15,69.22,51.35,69.22z M19.96,19.29c0.47,0,0.74,0.02,1,0c4.58-0.4,9.17-0.78,13.75-1.23
		c0.72-0.07,1.47-0.38,2.11-0.75c3.36-1.96,6.54-4.32,10.08-5.86c3.12-1.36,4.27-3.13,3.83-6.44c-0.3-2.26-0.3-2.58-2.57-2.91
		c-0.38-0.06-0.77-0.05-1.15-0.03C36.95,2.67,28.02,6.22,20.12,12.42c-0.4,0.31-0.76,0.99-0.73,1.47
		C19.48,15.64,19.74,17.37,19.96,19.29z M8.59,74.28c1.93-1.12,3.72-2.08,5.4-3.19c0.41-0.27,0.67-1.06,0.67-1.6
		c-0.07-5.47-0.21-10.94-0.34-16.41c-0.01-0.38,0.02-0.79-0.11-1.12c-1.71-4.38-3.45-8.74-5.28-13.33c-1.41,0.4-3.02,0.92-4.66,1.28
		c-1.09,0.24-1.52,0.81-1.68,1.87c-0.9,5.85-0.93,11.69,0.24,17.51C3.9,64.53,5.72,69.49,8.59,74.28z M81.65,20.02
		c0.11-1.49,0.16-2.9,0.32-4.3c0.13-1.15-0.21-1.98-1.19-2.65c-1.99-1.35-3.86-2.9-5.91-4.16C69.1,5.36,62.83,3.14,56.09,2.35
		c-3.12-0.37-3.94,0.38-3.95,3.33c0,0.77,0.07,1.54-0.01,2.3c-0.12,1.1,0.38,1.64,1.31,2.17c3.48,1.97,7.01,3.88,10.29,6.16
		c2.34,1.63,4.61,2.75,7.53,2.4c1.23-0.15,2.52,0.07,3.76,0.24C77.16,19.24,79.3,19.64,81.65,20.02z M38.87,93.09
		c-2.67-3.97-5.19-7.73-7.74-11.47c-0.26-0.38-0.7-0.7-1.13-0.89c-4.89-2.16-9.44-4.87-13.64-8.17c-0.32-0.25-0.99-0.47-1.28-0.31
		c-1.91,1.04-3.75,2.18-5.62,3.29c5.46,9.24,15.23,16.63,24.97,19.86c0.4,0.13,0.99,0.04,1.35-0.18
		C36.9,94.54,37.94,93.74,38.87,93.09z M98.13,48.99c-0.09-1.11-0.12-3.26-0.46-5.37c-0.61-3.84,0.24-3-3.83-3.61
		c-0.96-0.14-1.22,0.24-1.54,1.14c-1.36,3.86-2.9,7.65-4.32,11.49c-0.27,0.74-0.42,1.56-0.46,2.35c-0.24,3.98-0.39,7.97-0.65,11.96
		c-0.09,1.41-0.99,3.13-0.45,4.11c0.6,1.07,2.48,1.38,3.73,2.14c1.16,0.7,1.76,0.47,2.39-0.74C96.18,65.41,98.07,57.95,98.13,48.99z
		 M90.91,75.18c-1.68-0.8-3.07-1.59-4.55-2.12c-0.65-0.24-1.63-0.21-2.22,0.12c-2.45,1.34-4.73,3-7.22,4.26
		c-4.16,2.12-7.43,5.08-9.97,9c-1.45,2.23-3.3,4.2-5.05,6.38c0.6,0.48,1.16,0.84,1.59,1.31c1.23,1.32,2.49,1.27,4.11,0.6
		c5.31-2.22,10.16-5.15,14.45-8.98C85.45,82.71,88.37,79.26,90.91,75.18z"/>
</g>
</svg>
